HIERARCHY
ROOT hip
{
  OFFSET 0 90.174 2.4664
  CHANNELS 6 Xposition Yposition Zposition Zrotation Xrotation Yrotation
  JOINT abdomen
  {
    OFFSET 0 -1.186 -1.5018
    CHANNELS 6 Xposition Yposition Zposition Zrotation Xrotation Yrotation
    JOINT abdomen2
    {
      OFFSET 0 9.964 0.2134
      CHANNELS 6 Xposition Yposition Zposition Zrotation Xrotation Yrotation
      JOINT chest
      {
        OFFSET 0 13.134 -3.2573
        CHANNELS 6 Xposition Yposition Zposition Zrotation Xrotation Yrotation
        JOINT neck
        {
          OFFSET 0 20.686 -1.6905
          CHANNELS 6 Xposition Yposition Zposition Zrotation Xrotation Yrotation
          JOINT head
          {
            OFFSET 0 7.238 -0.1237
            CHANNELS 6 Xposition Yposition Zposition Zrotation Xrotation Yrotation
            End Site
            {
              OFFSET 0 0 0
            }
          }
        }
        JOINT lCollar
        {
          OFFSET 1.7069 20.075 5.0056
          CHANNELS 6 Xposition Yposition Zposition Zrotation Xrotation Yrotation
          JOINT lShldr
          {
            OFFSET 13.6458 -0.047 -4.849
            CHANNELS 6 Xposition Yposition Zposition Zrotation Xrotation Yrotation
            JOINT lForeArm
            {
              OFFSET 28.3255 -0.9759 2.2888
              CHANNELS 6 Xposition Yposition Zposition Zrotation Xrotation Yrotation
              JOINT lHand
              {
                OFFSET 22.1583 -0.53 10.8316
                CHANNELS 6 Xposition Yposition Zposition Zrotation Xrotation Yrotation
                JOINT lThumb1
                {
                  OFFSET 0.786 0.112 2.5817
                  CHANNELS 6 Xposition Yposition Zposition Zrotation Xrotation Yrotation
                  JOINT lThumb2
                  {
                    OFFSET 0.3601 -0.878 4.2331
                    CHANNELS 6 Xposition Yposition Zposition Zrotation Xrotation Yrotation
                    JOINT lThumb2_End
                    {
                      OFFSET 1.8127 -1.216 2.2227
                      CHANNELS 6 Xposition Yposition Zposition Zrotation Xrotation Yrotation
                      End Site
                      {
                        OFFSET 0.0181 -0.0122 0.0222
                      }
                    }
                  }
                }
                JOINT lCarpal1
                {
                  OFFSET 0.9571 1.114 1.7695
                  CHANNELS 6 Xposition Yposition Zposition Zrotation Xrotation Yrotation
                  JOINT lIndex1
                  {
                    OFFSET 4.1246 0.487 4.1451
                    CHANNELS 6 Xposition Yposition Zposition Zrotation Xrotation Yrotation
                    JOINT lIndex2
                    {
                      OFFSET 3.4052 -1.454 2.7682
                      CHANNELS 6 Xposition Yposition Zposition Zrotation Xrotation Yrotation
                      JOINT lIndex2_End
                      {
                        OFFSET 1.4531 -1.795 1.2713
                        CHANNELS 6 Xposition Yposition Zposition Zrotation Xrotation Yrotation
                        End Site
                        {
                          OFFSET 0.0145 -0.0179 0.0127
                        }
                      }
                    }
                  }
                  JOINT lMid1
                  {
                    OFFSET 5.6954 0.21 2.1184
                    CHANNELS 6 Xposition Yposition Zposition Zrotation Xrotation Yrotation
                    JOINT lMid2
                    {
                      OFFSET 3.9766 -1.54 2.3863
                      CHANNELS 6 Xposition Yposition Zposition Zrotation Xrotation Yrotation
                      JOINT lMid2_End
                      {
                        OFFSET 1.4042 -1.926 1.125
                        CHANNELS 6 Xposition Yposition Zposition Zrotation Xrotation Yrotation
                        End Site
                        {
                          OFFSET 0.014 -0.0193 0.0113
                        }
                      }
                    }
                  }
                }
                JOINT lCarpal2
                {
                  OFFSET 2.0956 0.66 -0.3894
                  CHANNELS 6 Xposition Yposition Zposition Zrotation Xrotation Yrotation
                  JOINT lRing1
                  {
                    OFFSET 5.0395 -0.09 2.4971
                    CHANNELS 6 Xposition Yposition Zposition Zrotation Xrotation Yrotation
                    JOINT lRing2
                    {
                      OFFSET 3.7921 -1.552 1.4806
                      CHANNELS 6 Xposition Yposition Zposition Zrotation Xrotation Yrotation
                      JOINT lRing2_End
                      {
                        OFFSET 1.4655 -1.808 0.9609
                        CHANNELS 6 Xposition Yposition Zposition Zrotation Xrotation Yrotation
                        End Site
                        {
                          OFFSET 0.0147 -0.0181 0.0096
                        }
                      }
                    }
                  }
                  JOINT lPinky1
                  {
                    OFFSET 4.9141 -1.269 0.3591
                    CHANNELS 6 Xposition Yposition Zposition Zrotation Xrotation Yrotation
                    JOINT lPinky2
                    {
                      OFFSET 3.1477 -1.685 0.8462
                      CHANNELS 6 Xposition Yposition Zposition Zrotation Xrotation Yrotation
                      JOINT lPinky2_End
                      {
                        OFFSET 0.8055 -1.585 0.7955
                        CHANNELS 6 Xposition Yposition Zposition Zrotation Xrotation Yrotation
                        End Site
                        {
                          OFFSET 0.0081 -0.0158 0.008
                        }
                      }
                    }
                  }
                }
              }
            }
          }
        }
        JOINT rCollar
        {
          OFFSET -1.7069 20.075 5.0056
          CHANNELS 6 Xposition Yposition Zposition Zrotation Xrotation Yrotation
          JOINT rShldr
          {
            OFFSET -13.6458 -0.047 -4.849
            CHANNELS 6 Xposition Yposition Zposition Zrotation Xrotation Yrotation
            JOINT rForeArm
            {
              OFFSET -28.3255 -0.9759 2.2888
              CHANNELS 6 Xposition Yposition Zposition Zrotation Xrotation Yrotation
              JOINT rHand
              {
                OFFSET -22.1583 -0.53 10.8316
                CHANNELS 6 Xposition Yposition Zposition Zrotation Xrotation Yrotation
                JOINT rThumb1
                {
                  OFFSET -0.786 0.112 2.5817
                  CHANNELS 6 Xposition Yposition Zposition Zrotation Xrotation Yrotation
                  JOINT rThumb2
                  {
                    OFFSET -0.3601 -0.878 4.2331
                    CHANNELS 6 Xposition Yposition Zposition Zrotation Xrotation Yrotation
                    JOINT rThumb2_End
                    {
                      OFFSET -1.8127 -1.216 2.2227
                      CHANNELS 6 Xposition Yposition Zposition Zrotation Xrotation Yrotation
                      End Site
                      {
                        OFFSET -0.0181 -0.0122 0.0222
                      }
                    }
                  }
                }
                JOINT rCarpal1
                {
                  OFFSET -0.9571 1.114 1.7695
                  CHANNELS 6 Xposition Yposition Zposition Zrotation Xrotation Yrotation
                  JOINT rIndex1
                  {
                    OFFSET -4.1246 0.487 4.1451
                    CHANNELS 6 Xposition Yposition Zposition Zrotation Xrotation Yrotation
                    JOINT rIndex2
                    {
                      OFFSET -3.4052 -1.454 2.7682
                      CHANNELS 6 Xposition Yposition Zposition Zrotation Xrotation Yrotation
                      JOINT rIndex2_End
                      {
                        OFFSET -1.4531 -1.795 1.2713
                        CHANNELS 6 Xposition Yposition Zposition Zrotation Xrotation Yrotation
                        End Site
                        {
                          OFFSET -0.0145 -0.018 0.0127
                        }
                      }
                    }
                  }
                  JOINT rMid1
                  {
                    OFFSET -5.6954 0.21 2.1184
                    CHANNELS 6 Xposition Yposition Zposition Zrotation Xrotation Yrotation
                    JOINT rMid2
                    {
                      OFFSET -3.9766 -1.54 2.3863
                      CHANNELS 6 Xposition Yposition Zposition Zrotation Xrotation Yrotation
                      JOINT rMid2_End
                      {
                        OFFSET -1.4042 -1.926 1.125
                        CHANNELS 6 Xposition Yposition Zposition Zrotation Xrotation Yrotation
                        End Site
                        {
                          OFFSET -0.014 -0.0193 0.0113
                        }
                      }
                    }
                  }
                }
                JOINT rCarpal2
                {
                  OFFSET -2.0956 0.66 -0.3894
                  CHANNELS 6 Xposition Yposition Zposition Zrotation Xrotation Yrotation
                  JOINT rRing1
                  {
                    OFFSET -5.0395 -0.09 2.4971
                    CHANNELS 6 Xposition Yposition Zposition Zrotation Xrotation Yrotation
                    JOINT rRing2
                    {
                      OFFSET -3.7921 -1.552 1.4806
                      CHANNELS 6 Xposition Yposition Zposition Zrotation Xrotation Yrotation
                      JOINT rRing2_End
                      {
                        OFFSET -1.4655 -1.808 0.9609
                        CHANNELS 6 Xposition Yposition Zposition Zrotation Xrotation Yrotation
                        End Site
                        {
                          OFFSET -0.0147 -0.0181 0.0096
                        }
                      }
                    }
                  }
                  JOINT rPinky1
                  {
                    OFFSET -4.9141 -1.269 0.3592
                    CHANNELS 6 Xposition Yposition Zposition Zrotation Xrotation Yrotation
                    JOINT rPinky2
                    {
                      OFFSET -3.1477 -1.685 0.8462
                      CHANNELS 6 Xposition Yposition Zposition Zrotation Xrotation Yrotation
                      JOINT rPinky2_End
                      {
                        OFFSET -0.8055 -1.585 0.7955
                        CHANNELS 6 Xposition Yposition Zposition Zrotation Xrotation Yrotation
                        End Site
                        {
                          OFFSET -0.0081 -0.0158 0.008
                        }
                      }
                    }
                  }
                }
              }
            }
          }
        }
      }
    }
  }
  JOINT lThigh
  {
    OFFSET 8.367 -8.2066 0.5982
    CHANNELS 6 Xposition Yposition Zposition Zrotation Xrotation Yrotation
    JOINT lShin
    {
      OFFSET 2.1923 -43.463 -0.4932
      CHANNELS 6 Xposition Yposition Zposition Zrotation Xrotation Yrotation
      JOINT lFoot
      {
        OFFSET 0.7333 -45.8593 -2.6451
        CHANNELS 6 Xposition Yposition Zposition Zrotation Xrotation Yrotation
        End Site
        {
          OFFSET 2.6618 -4.2699 12.3931
        }
      }
    }
  }
  JOINT rThigh
  {
    OFFSET -8.367 -8.2066 0.5982
    CHANNELS 6 Xposition Yposition Zposition Zrotation Xrotation Yrotation
    JOINT rShin
    {
      OFFSET -2.1923 -43.463 -0.4931
      CHANNELS 6 Xposition Yposition Zposition Zrotation Xrotation Yrotation
      JOINT rFoot
      {
        OFFSET -0.7333 -45.8593 -2.6451
        CHANNELS 6 Xposition Yposition Zposition Zrotation Xrotation Yrotation
        End Site
        {
          OFFSET -2.6618 -4.2699 12.3931
        }
      }
    }
  }
}
MOTION
Frames:	4
Frame Time:	0.0333333
0 90.174 2.4664 0 0 -0 0 -1.186 -1.5018 0 0 -0 0 9.964 0.2134 0 0 -0 0 13.134 -3.2573 0 0 -0 0 20.686 -1.6905 0 0 -0 0 7.238 -0.1237 0 0 -0 1.7069 20.075 5.0056 0 0 -0 13.6458 -0.047 -4.849 1.66051 0.0835086 5.75766 28.3255 -0.9759 2.2888 -0.0175111 0.895433 15.7816 22.1583 -0.53 10.8316 7.95139e-016 -1.98785e-016 -0 0.786 0.112 2.5817 5.46658e-016 -3.97569e-016 -0 0.3601 -0.878 4.2331 5.96354e-016 0 -0 1.8127 -1.216 2.2227 3.97569e-016 1.98785e-016 9.54166e-015 0.9571 1.114 1.7695 1.49089e-016 -3.97569e-016 -0 4.1246 0.487 4.1451 6.4605e-016 0 3.18055e-015 3.4052 -1.454 2.7682 5.96354e-016 0 3.18055e-015 1.4531 -1.795 1.2713 8.94531e-016 -1.98785e-016 6.36111e-015 5.6954 0.21 2.1184 6.4605e-016 0 3.18055e-015 3.9766 -1.54 2.3863 5.96354e-016 0 3.18055e-015 1.4042 -1.926 1.125 8.94531e-016 -1.98785e-016 6.36111e-015 2.0956 0.66 -0.3894 1.49089e-016 -3.97569e-016 -0 5.0395 -0.09 2.4971 6.4605e-016 0 3.18055e-015 3.7921 -1.552 1.4806 5.96354e-016 0 3.18055e-015 1.4655 -1.808 0.9609 8.94531e-016 -1.98785e-016 6.36111e-015 4.9141 -1.269 0.3591 6.4605e-016 0 3.18055e-015 3.1477 -1.685 0.8462 5.96354e-016 0 3.18055e-015 0.8055 -1.585 0.7955 8.94531e-016 -1.98785e-016 6.36111e-015 -1.7069 20.075 5.0056 0 0 -0 -13.6458 -0.047 -4.849 -1.4496 0.0636048 -5.0245 -28.3255 -0.9759 2.2888 -1.74811 1.20616 -16.8394 -22.1583 -0.53 10.8316 -1.19271e-015 1.98785e-016 -3.18055e-015 -0.786 0.112 2.5817 -3.97569e-016 1.98785e-016 -3.18055e-015 -0.3601 -0.878 4.2331 -2.98177e-016 1.98785e-016 -3.18055e-015 -1.8127 -1.216 2.2227 -2.98177e-016 3.97569e-016 -0 -0.9571 1.114 1.7695 4.96962e-016 0 -6.36111e-015 -4.1246 0.487 4.1451 -9.93923e-017 3.97569e-016 -0 -3.4052 -1.454 2.7682 -8.94531e-016 5.96354e-016 -0 -1.4531 -1.795 1.2713 -3.97569e-016 3.97569e-016 -0 -5.6954 0.21 2.1184 -9.93923e-017 3.97569e-016 -0 -3.9766 -1.54 2.3863 -8.94531e-016 5.96354e-016 -0 -1.4042 -1.926 1.125 -3.97569e-016 3.97569e-016 -0 -2.0956 0.66 -0.3894 4.96962e-016 0 -6.36111e-015 -5.0395 -0.09 2.4971 -9.93923e-017 3.97569e-016 -0 -3.7921 -1.552 1.4806 -8.94531e-016 5.96354e-016 -0 -1.4655 -1.808 0.9609 -3.97569e-016 3.97569e-016 -0 -4.9141 -1.269 0.3592 -9.93923e-017 3.97569e-016 -0 -3.1477 -1.685 0.8462 -8.94531e-016 5.96354e-016 -0 -0.8055 -1.585 0.7955 -3.97569e-016 3.97569e-016 -0 8.367 -8.2066 0.5982 -4.66115 -1.03232 0.120763 2.1923 -43.463 -0.4932 0.00990601 1.55097 0.177175 0.7333 -45.8593 -2.6451 4.65196 -0.54114 -0.255042 -8.367 -8.2066 0.5982 4.66115 -1.03222 -0.120763 -2.1923 -43.463 -0.4931 -0.00990459 1.5509 -0.177176 -0.7333 -45.8593 -2.6451 -4.65196 -0.541171 0.255041 
1.7357 59.0683 11.2779 0 38.9981 -0 0 -1.186 -1.5018 0.259336 -4.77614 -0.262189 0 9.964 0.2134 0.499265 -9.55338 -0.505242 -4.44089e-016 13.134 -3.2573 0.499265 -9.55337 -0.505242 0 20.686 -1.6905 -1.29616e-005 -0.260552 -2.57748e-006 4.44089e-016 7.238 -0.1237 -3.03682e-007 -0.344462 -1.37199e-007 1.7069 20.075 5.0056 -25.412 -16.2038 -37.6742 13.6458 -0.047 -4.849 -65.0047 56.1107 29.7393 28.3255 -0.9759 2.2888 -6.17627 4.06937 -18.2162 22.1583 -0.53 10.8316 -8.5183 -41.1756 -25.2675 0.786 0.112 2.5817 6.50281e-007 -1.07058e-006 -1.13195e-006 0.3601 -0.878 4.2331 0 0 -6.36111e-015 1.8127 -1.216 2.2227 6.50281e-007 -1.07058e-006 -1.13195e-006 0.9571 1.114 1.7695 -3.18055e-015 3.18055e-015 -0 4.1246 0.487 4.1451 6.50281e-007 -1.07058e-006 -1.13195e-006 3.4052 -1.454 2.7682 3.18055e-015 0 -1.59028e-015 1.4531 -1.795 1.2713 6.50281e-007 -1.07058e-006 -1.13195e-006 5.6954 0.21 2.1184 6.50281e-007 -1.07058e-006 -1.13195e-006 3.9766 -1.54 2.3863 3.18055e-015 0 -1.59028e-015 1.4042 -1.926 1.125 6.50281e-007 -1.07058e-006 -1.13195e-006 2.0956 0.66 -0.3894 -3.18055e-015 3.18055e-015 -0 5.0395 -0.09 2.4971 6.50281e-007 -1.07058e-006 -1.13195e-006 3.7921 -1.552 1.4806 3.18055e-015 0 -1.59028e-015 1.4655 -1.808 0.9609 6.50281e-007 -1.07058e-006 -1.13195e-006 4.9141 -1.269 0.3591 6.50281e-007 -1.07058e-006 -1.13195e-006 3.1477 -1.685 0.8462 3.18055e-015 0 -1.59028e-015 0.8055 -1.585 0.7955 6.50281e-007 -1.07058e-006 -1.13195e-006 -1.7069 20.075 5.0056 4.59596 13.7792 25.6776 -13.6458 -0.047 -4.849 43.0228 -3.00926 -29.2328 -28.3255 -0.9759 2.2888 22.8189 23.2737 59.4521 -22.1583 -0.53 10.8316 -19.1199 -31.6341 12.3563 -0.786 0.112 2.5817 1.98785e-016 3.97569e-016 -0 -0.3601 -0.878 4.2331 5.96354e-016 5.96354e-016 3.18055e-015 -1.8127 -1.216 2.2227 1.09332e-015 0 -0 -0.9571 1.114 1.7695 -5.96354e-016 3.97569e-016 -0 -4.1246 0.487 4.1451 1.98785e-016 0 9.54166e-015 -3.4052 -1.454 2.7682 8.94531e-016 1.98785e-016 -0 -1.4531 -1.795 1.2713 1.49089e-015 3.97569e-016 -0 -5.6954 0.21 2.1184 1.98785e-016 0 9.54166e-015 -3.9766 -1.54 2.3863 8.94531e-016 1.98785e-016 -0 -1.4042 -1.926 1.125 1.49089e-015 3.97569e-016 -0 -2.0956 0.66 -0.3894 -5.96354e-016 3.97569e-016 -0 -5.0395 -0.09 2.4971 1.98785e-016 0 9.54166e-015 -3.7921 -1.552 1.4806 8.94531e-016 1.98785e-016 -0 -1.4655 -1.808 0.9609 1.49089e-015 3.97569e-016 -0 -4.9141 -1.269 0.3592 1.98785e-016 0 9.54166e-015 -3.1477 -1.685 0.8462 8.94531e-016 1.98785e-016 -0 -0.8055 -1.585 0.7955 1.49089e-015 3.97569e-016 -0 8.367 -8.2066 0.5982 57.5378 -25.877 24.6038 2.1923 -43.463 -0.4932 5.90743 84.1084 -0.434517 0.7333 -45.8593 -2.6451 -56.6365 42.9332 67.3862 -8.367 -8.2066 0.5982 -57.5561 -25.8659 -24.6309 -2.1923 -43.463 -0.4931 -6.04274 84.0963 0.555808 -0.7333 -45.8593 -2.6451 56.6039 42.9591 -67.3769 
1.73569 58.9248 11.6008 0 38.1668 -0 0 -1.186 -1.5018 0.257897 -4.57634 -0.263733 0 9.964 0.2134 0.496972 -9.15376 -0.509171 0 13.134 -3.2573 0.496972 -9.15377 -0.509171 -4.44089e-016 20.686 -1.6905 -1.77797e-005 -0.519673 -9.16656e-007 0 7.238 -0.1237 2.15492e-008 -0.684386 4.5125e-008 1.7069 20.075 5.0056 -25.0371 -16.4414 -37.6287 13.6458 -0.047 -4.849 -65.4385 56.011 29.8529 28.3255 -0.9759 2.2888 -6.28365 4.15188 -18.4488 22.1583 -0.53 10.8316 -8.11144 -41.2039 -25.1139 0.786 0.112 2.5817 -3.18055e-015 0 -7.95139e-015 0.3601 -0.878 4.2331 -1.76556e-031 -3.18055e-015 -3.18055e-015 1.8127 -1.216 2.2227 -1.59028e-015 0 -6.36111e-015 0.9571 1.114 1.7695 -3.18055e-015 0 -1.59028e-015 4.1246 0.487 4.1451 -6.36111e-015 -3.18055e-015 3.18055e-015 3.4052 -1.454 2.7682 -3.18055e-015 0 -7.95139e-015 1.4531 -1.795 1.2713 -3.18055e-015 3.18055e-015 -3.18055e-015 5.6954 0.21 2.1184 -6.36111e-015 -3.18055e-015 3.18055e-015 3.9766 -1.54 2.3863 -3.18055e-015 0 -7.95139e-015 1.4042 -1.926 1.125 -3.18055e-015 3.18055e-015 -3.18055e-015 2.0956 0.66 -0.3894 -3.18055e-015 0 -1.59028e-015 5.0395 -0.09 2.4971 -6.36111e-015 -3.18055e-015 3.18055e-015 3.7921 -1.552 1.4806 -3.18055e-015 0 -7.95139e-015 1.4655 -1.808 0.9609 -3.18055e-015 3.18055e-015 -3.18055e-015 4.9141 -1.269 0.3591 -6.36111e-015 -3.18055e-015 3.18055e-015 3.1477 -1.685 0.8462 -3.18055e-015 0 -7.95139e-015 0.8055 -1.585 0.7955 -3.18055e-015 3.18055e-015 -3.18055e-015 -1.7069 20.075 5.0056 4.59596 13.7793 25.6776 -13.6458 -0.047 -4.849 43.0228 -3.00926 -29.2328 -28.3255 -0.9759 2.2888 22.8189 23.2737 59.4521 -22.1583 -0.53 10.8316 -19.194 -31.6561 12.6239 -0.786 0.112 2.5817 5.96354e-016 1.19271e-015 -3.18055e-015 -0.3601 -0.878 4.2331 -7.95139e-016 3.97569e-016 3.18055e-015 -1.8127 -1.216 2.2227 2.98177e-016 3.97569e-016 -0 -0.9571 1.114 1.7695 6.95746e-016 0 -0 -4.1246 0.487 4.1451 9.93923e-016 0 9.54166e-015 -3.4052 -1.454 2.7682 9.93923e-017 1.19271e-015 -0 -1.4531 -1.795 1.2713 1.78906e-015 9.93923e-016 -3.18055e-015 -5.6954 0.21 2.1184 9.93923e-016 0 9.54166e-015 -3.9766 -1.54 2.3863 9.93923e-017 1.19271e-015 -0 -1.4042 -1.926 1.125 1.78906e-015 9.93923e-016 -3.18055e-015 -2.0956 0.66 -0.3894 6.95746e-016 0 -0 -5.0395 -0.09 2.4971 9.93923e-016 0 9.54166e-015 -3.7921 -1.552 1.4806 9.93923e-017 1.19271e-015 -0 -1.4655 -1.808 0.9609 1.78906e-015 9.93923e-016 -3.18055e-015 -4.9141 -1.269 0.3592 9.93923e-016 0 9.54166e-015 -3.1477 -1.685 0.8462 9.93923e-017 1.19271e-015 -0 -0.8055 -1.585 0.7955 1.78906e-015 9.93923e-016 -3.18055e-015 8.367 -8.2066 0.5982 57.6533 -24.7259 24.3905 2.1923 -43.463 -0.4932 5.27563 83.6749 0.137632 0.7333 -45.8593 -2.6451 -55.8966 43.3453 66.7918 -8.367 -8.2066 0.5982 -57.6714 -24.7148 -24.4173 -2.1923 -43.463 -0.4931 -5.40603 83.6636 -0.0204207 -0.7333 -45.8593 -2.6451 55.8632 43.3707 -66.7814 
1.73568 58.7807 11.9223 0 37.3348 -0 0 -1.186 -1.5018 0.256461 -4.37645 -0.265263 -2.22045e-016 9.964 0.2134 0.494705 -8.75399 -0.513066 0 13.134 -3.2573 0.494705 -8.754 -0.513066 0 20.686 -1.6905 -9.38415e-007 -0.77896 6.61773e-007 0 7.238 -0.1237 -4.85152e-008 -1.02453 9.86279e-008 1.7069 20.075 5.0056 -24.6615 -16.6787 -37.5816 13.6458 -0.047 -4.849 -65.8709 55.9108 29.9649 28.3255 -0.9759 2.2888 -6.3907 4.23484 -18.6814 22.1583 -0.53 10.8316 -7.70422 -41.2314 -24.9599 0.786 0.112 2.5817 6.50365e-007 -1.07054e-006 -1.13188e-006 0.3601 -0.878 4.2331 -6.50365e-007 1.07054e-006 1.13188e-006 1.8127 -1.216 2.2227 -3.18055e-015 -3.18055e-015 1.59028e-015 0.9571 1.114 1.7695 0 0 -3.18055e-015 4.1246 0.487 4.1451 6.50365e-007 -1.07054e-006 -1.13188e-006 3.4052 -1.454 2.7682 -6.50365e-007 1.07054e-006 1.13188e-006 1.4531 -1.795 1.2713 -1.76556e-031 -6.36111e-015 -1.59028e-015 5.6954 0.21 2.1184 6.50365e-007 -1.07054e-006 -1.13188e-006 3.9766 -1.54 2.3863 -6.50365e-007 1.07054e-006 1.13188e-006 1.4042 -1.926 1.125 -1.76556e-031 -6.36111e-015 -1.59028e-015 2.0956 0.66 -0.3894 0 0 -3.18055e-015 5.0395 -0.09 2.4971 6.50365e-007 -1.07054e-006 -1.13188e-006 3.7921 -1.552 1.4806 -6.50365e-007 1.07054e-006 1.13188e-006 1.4655 -1.808 0.9609 -1.76556e-031 -6.36111e-015 -1.59028e-015 4.9141 -1.269 0.3591 6.50365e-007 -1.07054e-006 -1.13188e-006 3.1477 -1.685 0.8462 -6.50365e-007 1.07054e-006 1.13188e-006 0.8055 -1.585 0.7955 -1.76556e-031 -6.36111e-015 -1.59028e-015 -1.7069 20.075 5.0056 4.59596 13.7793 25.6776 -13.6458 -0.047 -4.849 43.0228 -3.00925 -29.2328 -28.3255 -0.9759 2.2888 22.8189 23.2737 59.4521 -22.1583 -0.53 10.8316 -19.268 -31.6783 12.8915 -0.786 0.112 2.5817 -2.18663e-015 -9.93923e-016 -0 -0.3601 -0.878 4.2331 -8.94531e-016 0 -6.36111e-015 -1.8127 -1.216 2.2227 -2.08724e-015 5.96354e-016 -3.18055e-015 -0.9571 1.114 1.7695 -1.39149e-015 -3.97569e-016 -0 -4.1246 0.487 4.1451 -3.97569e-016 -9.93923e-016 -3.18055e-015 -3.4052 -1.454 2.7682 -3.97569e-016 3.97569e-016 -6.36111e-015 -1.4531 -1.795 1.2713 -7.95139e-016 9.93923e-016 -6.36111e-015 -5.6954 0.21 2.1184 -3.97569e-016 -9.93923e-016 -3.18055e-015 -3.9766 -1.54 2.3863 -3.97569e-016 3.97569e-016 -6.36111e-015 -1.4042 -1.926 1.125 -7.95139e-016 9.93923e-016 -6.36111e-015 -2.0956 0.66 -0.3894 -1.39149e-015 -3.97569e-016 -0 -5.0395 -0.09 2.4971 -3.97569e-016 -9.93923e-016 -3.18055e-015 -3.7921 -1.552 1.4806 -3.97569e-016 3.97569e-016 -6.36111e-015 -1.4655 -1.808 0.9609 -7.95139e-016 9.93923e-016 -6.36111e-015 -4.9141 -1.269 0.3592 -3.97569e-016 -9.93923e-016 -3.18055e-015 -3.1477 -1.685 0.8462 -3.97569e-016 3.97569e-016 -6.36111e-015 -0.8055 -1.585 0.7955 -7.95139e-016 9.93923e-016 -6.36111e-015 8.367 -8.2066 0.5982 57.7723 -23.5741 24.1759 2.1923 -43.463 -0.4932 4.72491 83.24 0.629208 0.7333 -45.8593 -2.6451 -55.1471 43.753 66.1876 -8.367 -8.2066 0.5982 -57.791 -23.5623 -24.2027 -2.1923 -43.463 -0.4931 -4.85024 83.229 -0.515555 -0.7333 -45.8593 -2.6451 55.1129 43.778 -66.1761 
